#!OML:ASF H:\Terrain\Patient Classification 1\Walking\liu\liu.ASF
:FULLY-SPECIFIED
:DEGREES
1
root 0 18 0 -2.48785 71.449 -3.07509
lowerback 13.1855 -0.0361406 -7.71632
upperback 5.22108 -0.833716 -5.98125
thorax -1.83472 -0.297581 -1.81473
lowerneck 4.16477 -7.54019 -12.5874
upperneck 6.8162 -11.6234 21.4393
head 3.30129 -5.70992 8.46909
rclavicle -6.20208e-014 -2.54444e-014
rhumerus 33.6531 -37.0784 -36.2376
rradius 16.6367
rwrist 61.1912
rhand -11.0901 12.6372
rfingers 7.12502
rthumb 14.9337 -16.8045
lclavicle -6.20208e-014 -2.54444e-014
lhumerus 3.18864 -37.7724 72.8434
lradius 131.258
lwrist 16.5487
lhand -4.29966 14.7052
lfingers 7.12502
lthumb 21.4662 43.5358
rfemur -23.0758 25.0531 -0.872458
rtibia 45.9308
rfoot -19.1573 -9.39081
rtoes -29.4205
lfemur -7.64585 7.3107 3.98165
ltibia 54.2388
lfoot -6.87749 6.788
ltoes -37.6814
2
root 0 18 0 163.341 146.466 177.317
lowerback 24.8119 0.482153 -5.73966
upperback 8.53251 -0.36719 1.84829
thorax -4.26607 -0.170468 5.40646
lowerneck -12.7351 -11.8845 -16.8664
upperneck 15.0918 -15.6093 14.2559
head 9.34071 -7.15661 5.48175
rclavicle 3.37437e-014 -3.4191e-014
rhumerus -36.8232 -6.56702 -79.8583
rradius 44.5966
rwrist 11.8896
rhand -26.9756 5.13088
rfingers 7.12502
rthumb -0.396499 -24.8485
lclavicle 3.37437e-014 -3.4191e-014
lhumerus -45.9147 -4.54762 81.0551
lradius 44.576
lwrist 28.6636
lhand -32.954 18.0234
lfingers 7.12502
lthumb -6.16985 47.9135
rfemur -49.3664 -33.6441 23.0922
rtibia 100.505
rfoot -15.2735 -5.56639
rtoes 6.45173
lfemur -85.4265 45.7005 -30.6895
ltibia 135.779
lfoot -15.6271 -11.2674
ltoes -13.8829
3
root 0 18 0 10.0396 -5.20667 -2.70471
lowerback -7.06572 2.12274 0.0674147
upperback -2.7248 2.78836 1.84854
thorax 1.05702 1.4012 2.0811
lowerneck -18.5841 -6.048 -13.8506
upperneck 16.8868 -7.68181 14.9228
head 9.55333 -2.9712 6.4731
rclavicle -3.6769e-014 7.55382e-015
rhumerus -46.3517 8.22317 -87.3021
rradius 42.5754
rwrist -23.3507
rhand -30.4205 -24.4115
rfingers 7.12502
rthumb -3.7235 -54.3587
lclavicle -3.6769e-014 7.55382e-015
lhumerus -46.1729 -4.86344 88.1809
lradius 19.2404
lwrist -6.13256
lhand -6.12241 -21.8112
lfingers 7.12502
lthumb 19.7147 7.2091
rfemur 13.154 2.30368 21.6391
rtibia 23.8158
rfoot 7.02717 5.03576
rtoes -15.5738
lfemur -45.2157 9.14628 -22.6014
ltibia 42.5042
lfoot -6.80717 5.17133
ltoes 0.00785024
